<svg width="150" height="150" viewBox="0 0 150 150" fill="none" xmlns="http://www.w3.org/2000/svg">
<path d="M62.5 62.5V75H50V62.5H62.5ZM100 75V62.5H87.5V75H100ZM131.25 87.5V137.5H18.75V87.5H25V62.5C25 34.875 47.375 12.5 75 12.5C102.625 12.5 125 34.875 125 62.5V87.5H131.25ZM43.75 100H31.25V125H43.75V100ZM68.75 100H56.25V125H68.75V100ZM68.75 25.5C51 28.5 37.5 43.9375 37.5 62.5V87.5H68.75V25.5ZM81.25 87.5H112.5V62.5C112.5 43.9375 99 28.5 81.25 25.5V87.5ZM93.75 100H81.25V125H93.75V100ZM118.75 100H106.25V125H118.75V100Z" fill="#845EC2"/>
</svg>
