<svg width="150" height="150" viewBox="0 0 150 150" fill="none" xmlns="http://www.w3.org/2000/svg">
<path d="M125 50H106.25V25H18.75C11.875 25 6.25 30.625 6.25 37.5V106.25H18.75C18.75 116.625 27.125 125 37.5 125C47.875 125 56.25 116.625 56.25 106.25H93.75C93.75 116.625 102.125 125 112.5 125C122.875 125 131.25 116.625 131.25 106.25H143.75V75L125 50ZM37.5 115.625C32.3125 115.625 28.125 111.437 28.125 106.25C28.125 101.063 32.3125 96.875 37.5 96.875C42.6875 96.875 46.875 101.063 46.875 106.25C46.875 111.437 42.6875 115.625 37.5 115.625ZM121.875 59.375L134.125 75H106.25V59.375H121.875ZM112.5 115.625C107.313 115.625 103.125 111.437 103.125 106.25C103.125 101.063 107.313 96.875 112.5 96.875C117.687 96.875 121.875 101.063 121.875 106.25C121.875 111.437 117.687 115.625 112.5 115.625Z" fill="#845EC2"/>
</svg>
