<svg width="180" height="180" viewBox="0 0 180 180" fill="none" xmlns="http://www.w3.org/2000/svg">
<path d="M67.5 84.3V56.25C67.5 45.9 75.9 37.5 86.25 37.5C96.6 37.5 105 45.9 105 56.25V84.3C114.075 78.225 120 67.95 120 56.25C120 37.575 104.925 22.5 86.25 22.5C67.575 22.5 52.5 37.575 52.5 56.25C52.5 67.95 58.425 78.225 67.5 84.3ZM141.3 119.025L107.25 102.075C105.975 101.55 104.625 101.25 103.2 101.25H97.5V56.25C97.5 50.025 92.475 45 86.25 45C80.025 45 75 50.025 75 56.25V136.8C48 131.1 48.45 131.175 47.475 131.175C45.15 131.175 43.05 132.15 41.55 133.65L35.625 139.65L72.675 176.7C74.7 178.725 77.55 180 80.625 180H131.55C137.175 180 141.525 175.875 142.35 170.4L147.975 130.875C148.05 130.35 148.125 129.825 148.125 129.375C148.125 124.725 145.275 120.675 141.3 119.025Z" fill="#845EC2"/>
</svg>
