<svg width="150" height="150" viewBox="0 0 150 150" fill="none" xmlns="http://www.w3.org/2000/svg">
<path d="M131.25 68.75C131.25 37.6875 106.062 12.5 75 12.5C43.9375 12.5 18.75 37.6875 18.75 68.75C18.75 93.25 34.4375 114 56.25 121.75V137.5H68.75V124.625C70.8125 124.875 72.875 125 75 125C77.125 125 79.1875 124.875 81.25 124.625V137.5H93.75V121.75C115.563 114 131.25 93.25 131.25 68.75ZM75 112.5C50.875 112.5 31.25 92.875 31.25 68.75C31.25 44.625 50.875 25 75 25C99.125 25 118.75 44.625 118.75 68.75C118.75 92.875 99.125 112.5 75 112.5Z" fill="#845EC2"/>
<path d="M100 43.75H50V56.25H100V43.75Z" fill="#845EC2"/>
<path d="M79.6875 62.5L60.9375 81.25L68.75 89.0625L60.9375 96.875L70.3125 106.25L89.0625 87.5L81.25 79.6875L89.0625 71.875L79.6875 62.5Z" fill="#845EC2"/>
</svg>
