<svg width="180" height="180" viewBox="0 0 180 180" fill="none" xmlns="http://www.w3.org/2000/svg">
<path d="M67.5 112.5C47.475 112.5 7.5 122.55 7.5 142.5V157.5H127.5V142.5C127.5 122.55 87.525 112.5 67.5 112.5Z" fill="#845EC2"/>
<path d="M165.75 51.3C165.825 50.475 165.9 49.65 165.9 48.75C165.9 47.85 165.825 47.025 165.675 46.2L171.225 41.85C171.75 41.475 171.825 40.725 171.525 40.2L166.275 31.125C165.975 30.525 165.225 30.375 164.7 30.525L158.25 33.15C156.9 32.1 155.4 31.275 153.825 30.6L152.85 23.625C152.7 22.95 152.175 22.5 151.5 22.5H141C140.325 22.5 139.8 22.95 139.725 23.625L138.75 30.6C137.175 31.275 135.675 32.175 134.325 33.15L127.8 30.525C127.2 30.3 126.525 30.525 126.225 31.125L120.975 40.2C120.675 40.8 120.75 41.475 121.275 41.85L126.825 46.2C126.675 47.025 126.6 47.925 126.6 48.75C126.6 49.575 126.675 50.475 126.825 51.3L121.275 55.65C120.75 56.025 120.675 56.775 120.975 57.3L126.225 66.375C126.525 66.975 127.275 67.125 127.8 66.975L134.325 64.35C135.675 65.4 137.175 66.225 138.75 66.9L139.725 73.875C139.8 74.55 140.325 75 141 75H151.5C152.175 75 152.7 74.55 152.775 73.875L153.75 66.9C155.325 66.225 156.825 65.325 158.175 64.35L164.7 66.975C165.3 67.2 165.975 66.975 166.275 66.375L171.525 57.3C171.825 56.7 171.75 56.025 171.225 55.65L165.75 51.3ZM146.25 58.125C141.075 58.125 136.875 53.925 136.875 48.75C136.875 43.575 141.075 39.375 146.25 39.375C151.425 39.375 155.625 43.575 155.625 48.75C155.625 53.925 151.425 58.125 146.25 58.125Z" fill="#845EC2"/>
<path d="M149.4 87.6L145.65 81.075C145.425 80.625 144.9 80.475 144.525 80.625L139.875 82.5C138.9 81.75 137.85 81.15 136.725 80.7L136.05 75.75C135.9 75.3 135.45 75 135 75H127.5C127.05 75 126.675 75.3 126.6 75.825L125.925 80.775C124.8 81.225 123.75 81.9 122.775 82.575L118.125 80.7C117.675 80.55 117.225 80.7 117 81.15L113.25 87.675C113.025 88.125 113.1 88.575 113.475 88.875L117.45 91.95C117.375 92.55 117.3 93.15 117.3 93.75C117.3 94.35 117.375 95.025 117.45 95.55L113.475 98.625C113.1 98.925 113.025 99.45 113.25 99.825L117 106.35C117.225 106.8 117.75 106.95 118.125 106.8L122.775 104.925C123.75 105.675 124.8 106.275 125.925 106.725L126.6 111.675C126.675 112.2 127.05 112.5 127.5 112.5H135C135.45 112.5 135.9 112.2 135.9 111.675L136.575 106.725C137.7 106.275 138.75 105.6 139.725 104.925L144.375 106.8C144.825 106.95 145.275 106.8 145.5 106.35L149.25 99.825C149.475 99.375 149.4 98.925 149.025 98.625L145.125 95.55C145.2 94.95 145.275 94.35 145.275 93.75C145.275 93.15 145.2 92.475 145.125 91.95L149.1 88.875C149.475 88.575 149.55 88.05 149.4 87.6ZM131.25 99.975C127.8 99.975 125.025 97.125 125.025 93.75C125.025 90.3 127.875 87.525 131.25 87.525C134.625 87.525 137.475 90.375 137.475 93.75C137.475 97.2 134.7 99.975 131.25 99.975Z" fill="#845EC2"/>
<path d="M35.55 67.5H99.525C101.55 67.5 103.2 65.85 103.2 63.825V63.675C103.2 61.65 101.55 60 99.525 60H97.5C97.5 48.9 91.425 39.375 82.5 34.125V41.25C82.5 43.35 80.85 45 78.75 45C76.65 45 75 43.35 75 41.25V31.05C72.6 30.45 70.125 30 67.5 30C64.875 30 62.4 30.45 60 31.05V41.25C60 43.35 58.35 45 56.25 45C54.15 45 52.5 43.35 52.5 41.25V34.125C43.575 39.375 37.5 48.9 37.5 60H35.55C33.525 60 31.875 61.65 31.875 63.675V63.9C31.875 65.85 33.525 67.5 35.55 67.5Z" fill="#845EC2"/>
<path d="M67.5 97.5C81.45 97.5 93.075 87.9 96.45 75H38.55C41.925 87.9 53.55 97.5 67.5 97.5Z" fill="#845EC2"/>
</svg>
