<svg width="180" height="180" viewBox="0 0 180 180" fill="none" xmlns="http://www.w3.org/2000/svg">
<path d="M98.325 42.9L94.05 64.575C93.15 69 94.35 73.575 97.2 77.025C100.05 80.475 104.25 82.5 108.75 82.5H150V90.6L130.725 135H70.05C68.7 135 67.5 133.8 67.5 132.45V73.65L98.325 42.9V42.9ZM105 15L56.925 63.075C54.075 65.925 52.5 69.75 52.5 73.725V132.45C52.5 142.125 60.375 150 70.05 150H130.8C136.125 150 141 147.225 143.7 142.725L163.725 96.6C164.55 94.725 165 92.7 165 90.6V82.5C165 74.25 158.25 67.5 150 67.5H108.75L115.65 32.625C116.025 30.975 115.8 29.175 115.05 27.675C113.325 24.3 111.15 21.225 108.45 18.525L105 15ZM30 67.5H15V150H30C34.125 150 37.5 146.625 37.5 142.5V75C37.5 70.875 34.125 67.5 30 67.5Z" fill="#845EC2"/>
</svg>
